<mxfile host="app.diagrams.net" modified="2023-06-02T14:27:45.596Z" agent="Mozilla/5.0 (Windows NT 10.0; Win64; x64) AppleWebKit/537.36 (KHTML, like Gecko) Chrome/113.0.0.0 Safari/537.36" version="21.3.7" etag="MYG8897QGUS_92YuSh8r" type="github">
  <diagram name="Страница 1" id="KwDmzFwl4OEuIwep9hnA">
    <mxGraphModel>
      <root>
        <mxCell id="0" />
        <mxCell id="1" parent="0" />
      </root>
    </mxGraphModel>
  </diagram>
</mxfile>
